<svg xmlns="http://www.w3.org/2000/svg" xmlns:xlink="http://www.w3.org/1999/xlink" width="2000" zoomAndPan="magnify" viewBox="0 0 1500 1499.999933" height="2000" preserveAspectRatio="xMidYMid meet" version="1.0"><defs><g/><clipPath id="e8d77980a2"><path d="M 40 45 L 1484 45 L 1484 1462.507812 L 40 1462.507812 Z M 40 45 " clip-rule="nonzero"/></clipPath><clipPath id="cd137491fe"><path d="M 848.71875 65.632812 L 1268.285156 268.070312 C 1322.921875 294.433594 1362.582031 344.242188 1376.035156 403.398438 L 1478.695312 854.785156 C 1492.148438 913.945312 1477.945312 976.007812 1440.097656 1023.421875 L 1149.511719 1387.480469 C 1111.664062 1434.894531 1054.292969 1462.507812 993.625 1462.507812 L 530.886719 1462.507812 C 470.21875 1462.507812 412.847656 1434.894531 375 1387.480469 L 84.414062 1023.421875 C 46.570312 976.007812 32.363281 913.945312 45.816406 854.785156 L 148.476562 403.398438 C 161.933594 344.242188 201.589844 294.433594 256.230469 268.070312 L 675.796875 65.632812 C 730.421875 39.273438 794.089844 39.273438 848.71875 65.632812 Z M 848.71875 65.632812 " clip-rule="nonzero"/></clipPath><clipPath id="08a129c2cf"><path d="M 0 0 L 1444 0 L 1444 1417.507812 L 0 1417.507812 Z M 0 0 " clip-rule="nonzero"/></clipPath><clipPath id="9c525a9ace"><path d="M 808.71875 20.632812 L 1228.285156 223.070312 C 1282.921875 249.433594 1322.582031 299.242188 1336.035156 358.398438 L 1438.695312 809.785156 C 1452.148438 868.945312 1437.945312 931.007812 1400.097656 978.421875 L 1109.511719 1342.480469 C 1071.664062 1389.894531 1014.292969 1417.507812 953.625 1417.507812 L 490.886719 1417.507812 C 430.21875 1417.507812 372.847656 1389.894531 335 1342.480469 L 44.414062 978.421875 C 6.570312 931.007812 -7.636719 868.945312 5.816406 809.785156 L 108.476562 358.398438 C 121.933594 299.242188 161.589844 249.433594 216.230469 223.070312 L 635.796875 20.632812 C 690.421875 -5.726562 754.089844 -5.726562 808.71875 20.632812 Z M 808.71875 20.632812 " clip-rule="nonzero"/></clipPath><clipPath id="e71527f37b"><rect x="0" width="1444" y="0" height="1418"/></clipPath><clipPath id="a69e947f78"><rect x="0" width="496" y="0" height="760"/></clipPath></defs><g clip-path="url(#e8d77980a2)"><g clip-path="url(#cd137491fe)"><g transform="matrix(1, 0, 0, 1, 40, 45)"><g clip-path="url(#e71527f37b)"><g clip-path="url(#08a129c2cf)"><g clip-path="url(#9c525a9ace)"><path fill="#233dff" d="M -15.472656 -21.085938 L 1462.457031 -21.085938 L 1462.457031 1417.507812 L -15.472656 1417.507812 Z M -15.472656 -21.085938 " fill-opacity="1" fill-rule="nonzero"/></g></g></g></g></g></g><g transform="matrix(1, 0, 0, 1, 503, 368)"><g clip-path="url(#a69e947f78)"><g fill="#ffffff" fill-opacity="1"><g transform="translate(0.460751, 630.999894)"><g><path d="M 212.390625 0 L 212.390625 -328.703125 C 212.390625 -340.921875 207.960938 -351.347656 199.109375 -359.984375 C 190.265625 -368.628906 179.734375 -372.953125 167.515625 -372.953125 L 25.28125 -372.953125 L 25.28125 -442.484375 L 167.515625 -442.484375 C 189.003906 -442.484375 208.28125 -437.425781 225.34375 -427.3125 C 242.414062 -417.195312 256.007812 -403.601562 266.125 -386.53125 C 276.238281 -369.46875 281.296875 -350.191406 281.296875 -328.703125 L 281.296875 0 Z M 281.296875 -372.953125 L 281.296875 -442.484375 L 467.765625 -442.484375 L 467.765625 -372.953125 Z M 281.296875 -372.953125 "/></g></g></g></g></g></svg>